<svg xmlns="http://www.w3.org/2000/svg" viewBox="659 69.286 17.143 16.724">
  <defs>
    <style>
      .cls-1 {
        fill: #b4b4b4;
      }
    </style>
  </defs>
  <path id="Path_2" data-name="Path 2" class="cls-1" d="M4.263-14.565A8.546,8.546,0,0,0,1.15-11.445,8.385,8.385,0,0,0,0-7.143,8.331,8.331,0,0,0,1.635-2.1,8.4,8.4,0,0,0,5.859.993.5.5,0,0,0,6.306.915.437.437,0,0,0,6.451.58q0-.045-.006-.608T6.44-1.016l-.257.045a3.283,3.283,0,0,1-.619.039,4.766,4.766,0,0,1-.776-.078,1.737,1.737,0,0,1-.748-.335,1.415,1.415,0,0,1-.491-.686l-.112-.257a2.791,2.791,0,0,0-.352-.569A1.347,1.347,0,0,0,2.6-3.281l-.078-.056a.816.816,0,0,1-.145-.134.615.615,0,0,1-.1-.156q-.033-.078.056-.128a.724.724,0,0,1,.324-.05l.223.033a1.629,1.629,0,0,1,.552.268,1.8,1.8,0,0,1,.541.58,1.968,1.968,0,0,0,.619.7,1.315,1.315,0,0,0,.731.24,3.158,3.158,0,0,0,.636-.056,2.213,2.213,0,0,0,.5-.167,1.885,1.885,0,0,1,.547-1.15,7.644,7.644,0,0,1-1.144-.2A4.559,4.559,0,0,1,4.816-4a3.006,3.006,0,0,1-.9-.748,3.594,3.594,0,0,1-.586-1.172A5.571,5.571,0,0,1,3.1-7.589a3.306,3.306,0,0,1,.882-2.3,2.972,2.972,0,0,1,.089-2.277,1.537,1.537,0,0,1,.949.151,6.692,6.692,0,0,1,.932.43q.3.179.474.3a7.921,7.921,0,0,1,2.143-.29,7.921,7.921,0,0,1,2.143.29l.424-.268a6.011,6.011,0,0,1,1.027-.491,1.462,1.462,0,0,1,.9-.123,2.972,2.972,0,0,1,.089,2.277,3.306,3.306,0,0,1,.882,2.3,5.627,5.627,0,0,1-.229,1.68,3.454,3.454,0,0,1-.592,1.172,3.12,3.12,0,0,1-.9.742,4.559,4.559,0,0,1-1.049.435,7.644,7.644,0,0,1-1.144.2,1.988,1.988,0,0,1,.58,1.585q0,.681-.006,1.5T10.692.58a.437.437,0,0,0,.145.335.5.5,0,0,0,.446.078,8.4,8.4,0,0,0,4.224-3.1,8.331,8.331,0,0,0,1.635-5.039,8.385,8.385,0,0,0-1.15-4.3,8.533,8.533,0,0,0-3.119-3.119,8.385,8.385,0,0,0-4.3-1.15A8.415,8.415,0,0,0,4.263-14.565ZM3.248-3.4q.033-.078-.078-.134-.112-.033-.145.022-.033.078.078.134T3.248-3.4Zm.346.379q.078-.056-.022-.179-.112-.1-.179-.033t.022.179Q3.527-2.946,3.594-3.025Zm.335.5q.1-.078,0-.212T3.739-2.8q-.1.056,0,.2T3.929-2.522Zm.469.469q.089-.089-.045-.212T4.129-2.3q-.1.089.045.212T4.4-2.054Zm.636.279q.033-.123-.145-.179t-.212.078q-.045.123.145.167Q4.989-1.641,5.033-1.775Zm.7.056q0-.145-.19-.123-.179,0-.179.123,0,.145.19.123Q5.737-1.6,5.737-1.719Zm.647-.112q-.022-.123-.2-.1t-.156.167q.022.134.2.089T6.384-1.83Z" transform="translate(659 85)"/>
</svg>
